<svg xmlns="http://www.w3.org/2000/svg" width="38" height="41" viewBox="0 0 38 41">
    <g fill="#D4C19C" opacity=".498">
        <path d="M37.365 18.673h-2.652V13.593c0-.336-.274-.609-.612-.609h-4.082c-.338 0-.612.273-.612.61v5.08H26.55V16.84c0-.815-.318-1.579-.896-2.153-.578-.575-1.347-.892-2.165-.892-.026 0-.053.003-.079.006h-.94V12.04l.137-.13c.469-.467.837-1.01 1.094-1.614.266-.625.4-1.29.4-1.975V5.48c0-3.022-2.471-5.48-5.51-5.48-3.035 0-5.505 2.455-5.509 5.473 0 .023.001.046.003.068 0 .007.002.013.003.02l.006.038.009.036.005.021.014.038.006.017.016.036.01.018c.004.01.01.02.016.03l.014.022.016.022.02.026.014.016.025.028.014.013.03.027.018.013.029.022.035.022.015.009c.02.01.04.02.06.028.148.062.294.118.438.17v2.11c0 .684.135 1.35.4 1.974.258.604.626 1.148 1.095 1.614.045.044.091.087.138.13v1.755h-1.02c-.819 0-1.587.317-2.165.892-.578.575-.897 1.34-.897 2.153v1.833H8.593V14.41c0-.336-.275-.61-.613-.61H1.45c-.337 0-.611.274-.611.61V18.673H.635c-.338 0-.613.273-.613.61v2.435c0 .336.275.609.613.609h1.02v18.064c0 .336.274.609.612.609h2.449c.338 0 .612-.273.612-.609v-1.015h27.344v1.015c0 .336.274.609.612.609h2.449c.338 0 .612-.273.612-.609V22.327h1.02c.338 0 .613-.273.613-.61v-2.435c0-.336-.274-.609-.613-.609zm-6.734-4.47h2.857v4.47h-2.857v-4.47zM18.592 1.217c1.942 0 3.585 1.292 4.11 3.056-.863-.422-1.812-.06-2.91.361-1.44.553-3.214 1.231-5.465.436.208-2.159 2.04-3.853 4.265-3.853zm-3.469 7.104v-1.78c2.105.38 3.8-.269 5.11-.77.833-.32 1.552-.595 1.933-.403.274.138.513.56.711 1.255V8.32c0 1.03-.403 1.999-1.135 2.728-.733.728-1.707 1.13-2.742 1.13s-2.009-.402-2.742-1.13c-.732-.73-1.135-1.698-1.135-2.727zm6.122 4.557v1.155l-.971.483-.872-.598-.013-.009c-.024-.017-.049-.03-.074-.043l-.018-.008-.06-.024-.026-.008c-.018-.006-.037-.01-.056-.013l-.029-.006c-.025-.003-.05-.005-.077-.005h-.019c-.023 0-.046.002-.069.005l-.036.006-.042.01-.039.011-.038.015-.035.016c-.014.006-.027.014-.04.022-.008.004-.015.007-.022.012l-.972.623-.982-.488v-1.156c.085.042.172.082.26.119.629.264 1.296.398 1.985.398.689 0 1.357-.134 1.986-.398.088-.038.174-.077.259-.119zm-8.57 3.962c0-.49.191-.948.537-1.292.346-.344.807-.534 1.299-.535h1.476l1.515.754.018.007c.014.006.028.013.043.018l.028.01.04.011c.015.004.031.006.047.009l.023.004c.024.003.049.005.074.005.019 0 .036-.002.053-.004.011 0 .023 0 .034-.002l.037-.008.048-.01.017-.007c.022-.007.045-.015.066-.024l.002-.001c.027-.013.053-.028.079-.044l.918-.59.848.582.006.003c.02.014.04.026.063.037l.016.009c.02.01.041.017.063.024l.022.008c.02.006.04.01.06.014.009.002.018.005.028.006.024.004.048.005.072.005l.016.002c.027 0 .051-.002.075-.005.026-.003.049-.007.071-.013.007-.001.014-.004.02-.006.017-.004.033-.009.048-.015l.026-.01c.011-.006.023-.01.035-.015L22 15.02h1.488c.02 0 .038-.001.057-.003.47.015.91.201 1.242.532.346.344.537.803.538 1.292v1.832H12.674v-1.832zM2.062 15.02h5.306v1.218H2.063V15.02zm0 2.436h5.306v1.217H2.063v-1.217zm2.04 21.31v1.016H2.88V22.327h1.225v16.439zm1.225-.608V22.327h27.344v15.831H5.328zm29.793 1.624h-1.225V22.327h1.225v17.455zm1.632-18.673H1.247v-1.218h35.506v1.218z"/>
        <path d="M31.268 24.535c-.113-.114-.272-.179-.432-.179-.113 0-.204-.09-.204-.203 0-.16-.066-.317-.18-.43-.114-.113-.272-.178-.433-.178H7.981c-.161 0-.319.065-.433.178-.114.113-.18.27-.18.43 0 .113-.09.203-.203.203-.161 0-.32.065-.433.18-.114.112-.18.27-.18.43v3.943c0 .336.276.61.613.61.338 0 .612-.274.612-.61v-3.471c.297-.14.538-.38.679-.676h21.088c.142.296.382.535.68.676v9.61c-.298.14-.538.38-.68.675H8.456c-.141-.296-.382-.535-.68-.676v-3.702c0-.336-.274-.609-.611-.609-.338 0-.613.273-.613.61v4.174c0 .16.066.316.18.43.113.114.272.179.432.179.113 0 .205.09.205.203 0 .16.065.317.18.43.113.114.27.179.432.179h22.038c.161 0 .319-.065.433-.18.114-.112.18-.27.18-.43 0-.111.09-.202.204-.202.16 0 .318-.065.432-.179.114-.114.18-.27.18-.43V24.965c0-.16-.065-.316-.18-.43z"/>
    </g>
</svg>
