<svg xmlns="http://www.w3.org/2000/svg" width="40" height="46" viewBox="0 0 40 46">
    <g fill="none" fill-rule="evenodd" opacity=".498">
        <path fill="#D4C19C" fill-rule="nonzero" d="M37.365 26.47h-2.652v-5.034c0-.333-.274-.604-.612-.604h-4.082c-.338 0-.612.27-.612.604v5.034H26.55v-1.816c0-.807-.318-1.564-.896-2.134-.578-.57-1.347-.883-2.165-.883-.026 0-.053.002-.079.005h-.94v-1.745c.046-.042.092-.085.137-.129.469-.462.837-1 1.094-1.599.266-.619.4-1.278.4-1.957v-2.816c0-2.994-2.471-5.43-5.51-5.43-3.035 0-5.505 2.432-5.509 5.424 0 .022.001.045.003.067l.003.019.006.039c.002.012.006.023.009.035l.005.02.014.039.006.016.016.035.01.019c.004.01.01.019.016.028l.014.023.016.022.02.026.014.016.025.027.014.013.03.027.018.013.029.022.035.021.015.009c.02.01.04.02.06.028.148.062.294.117.438.168v2.09c0 .68.135 1.338.4 1.958.258.598.626 1.137 1.095 1.598.045.045.091.087.138.13v1.74h-1.02c-.819 0-1.587.313-2.165.882-.578.57-.897 1.328-.897 2.134v1.816H8.593v-4.224c0-.333-.275-.603-.613-.603H1.45c-.337 0-.611.27-.611.603v4.223H.635c-.338 0-.613.271-.613.604v2.414c0 .333.275.603.613.603h1.02v13.917c0 .333.274.603.612.603h2.449c.338 0 .612-.27.612-.603V43h27.344v1.006c0 .333.274.603.612.603h2.449c.338 0 .612-.27.612-.603V30.09h1.02c.338 0 .613-.27.613-.604v-2.413c0-.333-.274-.603-.613-.603zm-6.734-4.43h2.857v4.43h-2.857v-4.43zM18.592 9.172c1.942 0 3.585 1.28 4.11 3.029-.863-.42-1.812-.06-2.91.357-1.44.548-3.214 1.22-5.465.432.208-2.14 2.04-3.818 4.265-3.818zm-3.469 7.04v-1.765c2.105.377 3.8-.266 5.11-.763.833-.316 1.552-.589 1.933-.398.274.136.513.554.711 1.243v1.681c0 1.021-.403 1.981-1.135 2.703-.733.722-1.707 1.12-2.742 1.12s-2.009-.398-2.742-1.12c-.732-.722-1.135-1.682-1.135-2.702zm6.122 4.515v1.145l-.971.478-.872-.593-.013-.008c-.024-.017-.049-.03-.074-.043l-.018-.008-.06-.024-.026-.008c-.018-.005-.037-.01-.056-.013l-.029-.005c-.025-.004-.05-.005-.077-.006h-.019c-.023 0-.046.002-.069.005l-.036.007-.042.009-.039.012-.038.014-.035.016c-.014.006-.027.014-.04.021l-.022.012-.972.618-.982-.484v-1.145c.085.041.172.08.26.117.629.263 1.296.395 1.985.395.689 0 1.357-.132 1.986-.395.088-.036.174-.076.259-.117zm-8.57 3.926c0-.485.191-.94.537-1.28.346-.341.807-.53 1.299-.53h1.476l1.515.746.018.008.043.018.028.009.04.011.047.01c.008 0 .015.002.023.003.024.003.049.005.074.005.019 0 .036-.002.053-.004.011 0 .023 0 .034-.002l.037-.008.048-.01.017-.006c.022-.007.045-.015.066-.025h.002c.027-.013.053-.028.079-.044l.918-.584.848.576.006.003c.02.014.04.026.063.037l.016.008c.02.01.041.018.063.025l.022.008c.02.005.04.01.06.013.009.002.018.005.028.006.024.004.048.005.072.006h.016c.027 0 .051 0 .075-.004.026-.003.049-.007.071-.012l.02-.007.048-.014.026-.011.035-.015L22 22.85h1.488c.02 0 .038-.002.057-.004.47.015.91.2 1.242.528.346.341.537.795.538 1.28v1.816H12.674v-1.816zM2.062 22.849h5.306v1.207H2.063v-1.207zm0 2.414h5.306v1.207H2.063v-1.207zm2.04 17.133V43.403H2.88V30.09h1.225v12.306zm1.225-.602V30.09h27.344v11.704H5.328zm29.793 1.61h-1.225V30.09h1.225v13.313zm1.632-14.52H1.247v-1.208h35.506v1.207z" transform="translate(1 1)"/>
        <path stroke="#D4C19C" stroke-width="1.2" d="M19 3.585L38 15.136 38 11.949 19 0.398 0 11.949 0 14.737z" transform="translate(1 1)"/>
    </g>
</svg>
