<svg xmlns="http://www.w3.org/2000/svg" width="41" height="41" viewBox="0 0 41 41">
    <g fill="#D4C19C" opacity=".498">
        <path d="M30.893 34.851c-.113-.112-.266-.176-.425-.176H18.437c-.674 0-1.332-.273-1.807-.75l-5.49-5.523c-.234-.235-.614-.237-.85-.003-.235.233-.236.612-.003.847l5.49 5.523c.7.702 1.668 1.105 2.66 1.105h11.782l4.905 4.896c.117.117.271.175.425.175.153 0 .307-.058.424-.175.235-.235.235-.614 0-.848l-5.08-5.071z"/>
        <path d="M40.803 31.883l-5.826-5.814c-.63-2.198-2.643-3.72-4.951-3.72-1.913 0-3.658 1.05-4.555 2.738-.012.024-.036.04-.06.04h-2.86l-4.669-4.66c-.435-.434-1.014-.673-1.63-.673-.616 0-1.195.24-1.63.674-.283.282-.476.621-.58.98-.88-.85-2.289-.84-3.158.027-.275.274-.463.603-.566.952-.951-.72-2.317-.648-3.184.218-.948.946-.948 2.484-.002 3.428l1.348 1.356c.234.235.614.237.85.004.235-.234.237-.613.003-.848l-1.35-1.358c-.232-.232-.36-.54-.36-.867 0-.328.128-.636.36-.867.232-.232.54-.36.869-.36.328 0 .636.128.868.36l6.982 6.968c.113.112.265.175.425.175h9.13c.332 0 .6-.268.6-.6 0-.33-.268-.599-.6-.599h-6.171c-.86 0-1.56-.698-1.56-1.555 0-.858.7-1.556 1.56-1.556h5.324c.471 0 .901-.26 1.123-.678.688-1.295 2.026-2.1 3.493-2.1 1.814 0 3.39 1.225 3.831 2.978.026.105.081.201.158.278l5.939 5.927c.117.117.27.175.424.175.154 0 .308-.058.425-.175.234-.235.234-.614 0-.848zm-23.428-2.446l-5.642-5.631c-.41-.41-.41-1.075 0-1.484.41-.409 1.077-.409 1.487 0l4.377 4.369c-.174.36-.271.764-.271 1.19 0 .577.179 1.113.484 1.556h-.435zm.972-3.693l-2.876-2.87c-.43-.43-.43-1.129 0-1.559.209-.208.486-.322.781-.322.295 0 .572.114.78.322l3.82 3.812h-.766c-.659 0-1.264.231-1.739.617zM15.197 36.027c-.332 0-.6.269-.6.6v1.336c0 .983-.802 1.783-1.787 1.783H3.034c-.985 0-1.787-.8-1.787-1.783V20.35c0-.331-.268-.6-.6-.6-.332 0-.6.269-.6.6v17.614c0 1.645 1.34 2.982 2.987 2.982h9.776c1.647 0 2.987-1.337 2.987-2.982v-1.336c0-.331-.269-.6-.6-.6zM.647 18.394c.332 0 .6-.269.6-.6v-.764c0-1.056.406-2.055 1.142-2.813l2.627-2.708h5.812l2.627 2.708c.736.758 1.141 1.757 1.141 2.813v1.102c0 .331.269.6.6.6.332 0 .601-.269.601-.6V17.03c0-1.368-.525-2.664-1.48-3.647l-2.804-2.89c-.027-.028-.056-.053-.088-.075V8.117c0-.976-.742-1.782-1.693-1.885V4.156h5.846v1.61c0 .68.554 1.232 1.236 1.232h1.692c.682 0 1.236-.553 1.236-1.233V3.821C19.742 1.714 18.025 0 15.914 0H7.578c-.331 0-.6.268-.6.6 0 .33.269.599.6.599h8.336c1.448 0 2.627 1.176 2.627 2.622v1.944c0 .02-.015.035-.034.035h-1.693c-.02 0-.035-.016-.035-.035V3.821c0-.476-.388-.864-.865-.864H2.864c-.055 0-.1-.044-.1-.1V1.299c0-.054.045-.1.1-.1H5.02c.331 0 .6-.268.6-.599C5.62.27 5.35 0 5.02 0H2.864c-.717 0-1.3.582-1.3 1.298v1.56c0 .716.583 1.298 1.3 1.298h3.248v2.076c-.951.103-1.694.909-1.694 1.885v2.301c-.031.022-.06.047-.088.075l-2.804 2.89c-.954.983-1.48 2.279-1.48 3.647v.764c0 .331.27.6.6.6zM8.53 4.156V6.22H7.313V4.156H8.53zM6.318 7.419h3.207c.386 0 .7.313.7.698v2.193H5.618V8.117c0-.385.314-.698.7-.698z"/>
        <path d="M19.518 8.729c-1.636 2.318-2.466 4.028-2.466 5.084 0 1.452.792 2.79 2.067 3.492.092.05.192.074.29.074.212 0 .417-.112.526-.31.16-.29.055-.654-.235-.814-.893-.491-1.447-1.427-1.447-2.442 0-.364.22-1.521 2.247-4.394.127-.18.326-.282.546-.282.22 0 .419.103.545.282.658.932 1.207 1.806 1.587 2.53.154.293.517.406.81.252.295-.153.408-.516.254-.809-.41-.78-.972-1.676-1.669-2.663-.35-.495-.92-.79-1.527-.79-.607 0-1.178.295-1.528.79zM23.148 13.856c-1.766 2.363-2.136 3.567-2.136 4.16 0 1.613 1.314 2.925 2.93 2.925s2.93-1.312 2.93-2.924c0-.594-.37-1.798-2.136-4.161-.189-.253-.478-.398-.794-.398-.316 0-.605.145-.794.398zm2.523 4.16c0 .952-.776 1.726-1.729 1.726-.953 0-1.729-.774-1.729-1.725 0-.522.673-1.77 1.73-3.216 1.055 1.447 1.728 2.694 1.728 3.216z"/>
    </g>
</svg>
