<svg xmlns="http://www.w3.org/2000/svg" width="46" height="61" viewBox="0 0 46 61">
    <g fill="#621132">
        <path d="M43.882 34.029c1.33 1.092 1.994 3.78 1.994 8.066v14.738c-.003 2.23-1.786 4.038-3.987 4.041 0 0-6.084-.004-6.135-.013l-14.826-2.373-10.507 2.315-6.405.071C1.815 60.871.03 59.064.029 56.832V42.144c-.02-2.637.217-4.792.71-6.465.797-1.505 2.184-2.599 3.82-3.011l8.18-2.073.005-.001 3.232-.82v-2.146c-.556-.573-1.001-1.246-1.313-1.984-.968-2.283-1.527-4.723-1.65-7.205h-.027c-2.202.006-3.992-1.798-3.999-4.03-.007-2.232 1.773-4.047 3.975-4.053 1.932-.006.024-1.96.024-3.918 0-1.212.509-2.367 1.4-3.175.89-.809 2.08-1.194 3.268-1.06C19.07.94 20.894.246 22.78.25h4.158c3.3.005 5.976 2.717 5.98 6.063 0 .282-.117.551-.322.742.12.419.206.846.259 1.279.159 1.324-1.23 2.017.087 2.02 2.201.007 3.981 1.822 3.974 4.054-.006 2.232-1.796 4.036-3.998 4.03h-.027c-.123 2.481-.682 4.92-1.65 7.204-.312.738-.757 1.411-1.313 1.984v2.147l11.417 2.893c.942.238 1.812.706 2.536 1.362zm-11.685-1.597l-1.275-.323-1.275-.323-3.961 15.4 1.906-.121 3.235-3.644-.868-3.52c-.067-.268-.021-.552.124-.785.146-.234.38-.396.647-.45l3.779-.767-2.312-5.467zm6.937 13.286l-4.673 2.37 9.421.596v-2.966h-4.748zm-22.988 8.756l.403-5.497-2.707-.172-.705 5.008.06.011 2.949.65zM2.022 49.76v3.03H6.01c.047 0 .094.004.14.01l5.014.727.734-5.21-5.127-2.599H2.022v4.042zm10.964-33.342v-4.042c-1.101 0-1.994.905-1.994 2.021 0 1.116.893 2.02 1.994 2.02zm5.637-9.093c-.502 1.139-1.66 3.616-3.088 5.664l1.093 3.498c.205.372.553.64.962.74.408.1.839.022 1.189-.214.435-.294.931-.486 1.45-.56l1.778-5.406 1.89.638-1.555 4.733h2.842c.691-.001 1.367.206 1.942.595l.175.119c.678.458 1.593.287 2.064-.388l1.04-3.676c-1.303-1.768-2.376-3.699-3.194-5.743h-8.588zm11.967 0h-1.208c.447 1.014.963 1.996 1.543 2.939v-.919c.002-.688-.112-1.37-.335-2.02zm2.329 6.062v3.03c1.1 0 1.993-.904 1.993-2.02s-.892-2.02-1.993-2.02v1.01zm-15.874 5.785c-.856-.23-1.593-.78-2.064-1.54.032 2.483.546 4.934 1.513 7.215.688 1.63 2.268 2.686 4.016 2.685h4.884c1.748 0 3.328-1.056 4.015-2.685.917-2.16 1.427-4.476 1.505-6.827-1.122 1.483-3.186 1.83-4.72.793l-.174-.118c-.247-.168-.538-.257-.836-.257H20.72c-.297 0-.588.09-.836.257-.835.564-1.869.738-2.84.477zm2.518 17.454l.4 1.552v-1.876l-.4.324zm-.551-2.141l1.324-1.074.563-.456-2.498-.844.61 2.374zm7.33 2.141l-.4-.324v1.878l.4-1.554zm.55-2.141l.612-2.374-2.498.844.562.456 1.325 1.074zm-4.936 11.438l.358 1.394h1.277l.358-1.39V34.685l-.997-.809-.996.809v11.237zm-1.446-16.37c-.874 0-1.74-.183-2.541-.537v.819l4.983 1.684 4.983-1.685v-.818c-.801.354-1.666.537-2.541.537H20.51zm-4.253 2.233l-2.55.646-2.311 5.467 3.778.766c.268.055.501.217.647.45.146.234.19.518.125.786l-.868 3.52 3.234 3.643 1.908.121-.225-.874-.002-.01-2.522-9.797v-.002l-.951-3.695-.263-1.021zm-7.143 7.33c-.14-.27-.153-.588-.034-.868l2.198-5.2-6.236 1.58c-1.776.448-3.022 2.065-3.02 3.92v5.15h4.984c.154 0 .307.036.445.106L9 44.59v-1.902h1.993V45.6l2.258 1.145 2.22.14-2.229-2.51c-.222-.25-.307-.595-.226-.921l.743-3.014-3.958-.802c-.294-.06-.547-.251-.686-.52zM28.348 5.304H30.8c-.153-.602-.442-1.16-.844-1.63l-1.607 1.63zm-2.819 0l2.756-2.794c-.432-.157-.887-.238-1.346-.237h-1.514l-2.392 3.03h2.496zm-2.657-3.031h-.09c-1.404-.004-2.76.51-3.816 1.448v1.583h1.514l2.392-3.031zm-7.893 4.165v3.683c.738-1.298 1.404-2.638 1.993-4.013V4.206c-1.13.116-1.992 1.08-1.993 2.232zM4.016 58.853h5.872l6.305-1.39c-.157-.2-.234-.451-.215-.705l.018-.249-3.187-.702-.941-.136-.007-.002-5.923-.857H2.022v2.02c.002 1.116.893 2.02 1.994 2.021zm31.97 0h5.903c1.1-.001 1.992-.905 1.993-2.02v-6.124L18.54 49.103l-.504 6.876 17.952 2.874zm7.896-15.155v-5.15c.002-1.855-1.243-3.472-3.02-3.92l-6.235-1.58 2.198 5.2c.119.28.106.599-.033.868-.14.27-.393.461-.687.52l-3.959.803.743 3.014c.08.326-.004.67-.226.92l-2.229 2.51 2.22-.14 2.258-1.144v-2.912h1.993v1.902l1.548-.785c.138-.07.291-.106.446-.106h4.983zM21.817 22.48h-1.855v-2.02h1.855c1.365 0 2.685-.32 3.623-.874l1.004 1.746c-1.252.74-2.895 1.148-4.627 1.148zm-3.35-8.083c-.825 0-1.494-.679-1.495-1.515 0-.837.67-1.516 1.495-1.516.826 0 1.495.679 1.495 1.516s-.67 1.515-1.495 1.515zm8.97 0c-.825 0-1.494-.679-1.495-1.515 0-.837.67-1.516 1.495-1.516.826 0 1.495.679 1.495 1.516s-.67 1.515-1.495 1.515z"/>
        <path d="M20.959 52.791H22.951999999999998V54.812H20.959zM24.946 52.791H26.939V54.812H24.946z"/>
    </g>
</svg>
