<svg xmlns="http://www.w3.org/2000/svg" xmlns:xlink="http://www.w3.org/1999/xlink" width="51" height="60" viewBox="0 0 51 60">
    <defs>
        <path id="prefix__a" d="M0 0H25.5V60H0z"/>
        <path id="prefix__c" d="M0 0H25.5V60H0z"/>
    </defs>
    <g fill="none" fill-rule="evenodd">
        <path fill="#621132" fill-rule="nonzero" d="M22.012 12.973c-.615 0-1.169.363-1.404.923-.236.559-.107 1.203.327 1.632.434.428 1.087.557 1.655.325.567-.232.937-.778.937-1.383 0-.826-.678-1.496-1.515-1.497zM31.079 12.973c-.614 0-1.168.363-1.404.923-.236.559-.106 1.203.328 1.632.434.428 1.087.557 1.654.325.568-.232.938-.778.938-1.383 0-.826-.678-1.496-1.516-1.497zM25.655 18.96h-2.132v1.996h2.132c1.426.002 2.843-.204 4.207-.612l-.589-1.909c-1.173.35-2.392.527-3.618.525z" transform="translate(-1)"/>
        <g transform="translate(-1) translate(26.5)">
            <mask id="prefix__b" fill="#fff">
                <use xlink:href="#prefix__a"/>
            </mask>
            <path fill="#621132" fill-rule="nonzero" d="M25.074 52.878l-5.827-16.28c-.746-2.184-2.617-3.81-4.909-4.265l-1.109-.22v-.18c-.004-3.447-2.555-6.378-6.01-6.905 1.658-1.627 2.691-3.772 2.924-6.068h.05c2.236 0 4.048-1.787 4.048-3.991 0-2.205-1.812-3.992-4.048-3.992V6.985C10.19 3.13 7.02.005 3.11 0h-6.072c-3.91.004-7.08 3.13-7.084 6.985v3.992c-.34 0-.681.042-1.012.126V9.98c0-.55-.453-.998-1.012-.998h-5.06c-.558 0-1.012.447-1.012.998v4.628l-4.826 5.71c-.151.18-.234.406-.234.64v2.993h-9.108c-.383 0-.733.214-.905.552l-2.024 3.991-.002.007c-.069.136-.105.287-.105.44v11.975c0 .55.454.998 1.012.998h13.299l-3.895 10.973c-.646 1.82-.377 4.051.98 5.49 2.413 2.56 7.33 1.89 8.715-1.388l2.153-5.096v6.985c0 .551.454.998 1.012.998h24.288c.56 0 1.012-.447 1.012-.998v-6.985l2.154 5.096c1.05 2.486 4.056 3.41 6.549 2.68 2.834-.83 4.084-4.156 3.142-6.79zm-3.656-4.216l-2.547-3.14 1.175-.694 1.372 3.834zM17.329 37.24l.006.016 2.023 5.652-1.763 1.043-4.366-5.381v-4.42l.712.14c1.583.314 2.876 1.44 3.388 2.95zM6.145 57.879H-5.999V47.9c.56 0 1.012-.447 1.012-.998V38.92c0-.551-.453-.998-1.012-.998v-5.37l.043-.022c.167 1.395.81 2.693 1.825 3.679 1.118 1.096 2.63 1.712 4.207 1.713l.115-.001c3.065-.074 5.6-2.378 5.923-5.385l.031.015v5.371c-.558 0-1.012.447-1.012.998v7.983c0 .551.454.998 1.012.998v9.98zM-10.047 18.96h.051c.18 1.81.862 3.537 1.971 4.99h-3.034v-2.994c0-.233-.082-.459-.234-.638l-4.52-5.35h1.718c.003 2.204 1.814 3.99 4.048 3.992zm10.12 8.982c1.393-.001 2.771-.285 4.048-.832v4.823c-.01 2.17-1.769 3.939-3.969 3.991-1.072.019-2.107-.393-2.865-1.14-.803-.778-1.257-1.84-1.262-2.95V27.11c.92.397 1.894.656 2.89.768.385.043.772.065 1.158.065zm-16.192 3.991h3.036v.18l-1.162.23c-.656.13-1.288.36-1.874.682v-1.092zm5.06-5.987h1.438c-.526.31-1.01.687-1.438 1.12v-1.12zm3.717 5.035l-3.691.728c.116-2.66 2.334-4.76 5.034-4.765v3.375l-1.343.662zm-5.74-1.043h-8.097v-7.984h8.096v7.984zm-8.097 1.995h3.036v2.81c-.285.367-.53.763-.729 1.182h-2.307v-3.992zm1.256 12.885l1.197.707-2.574 3.174 1.377-3.88zm2.473-.866l-1.79-1.057.585-1.65 1.44-4.059c.53-1.479 1.808-2.575 3.367-2.886l.765-.151v4.42l-4.367 5.383zm6.41-10.206l3.017-.595v4.77h-3.018v-4.175zm19.21-.595l3.035.599v4.171H8.17v-4.77zm3.03-1.438l-3.711-.732-1.344-.662v-3.375c2.707.003 4.932 2.103 5.055 4.769zm-6.632-7.116c-.54.364-1.123.66-1.737.881-3.184 1.14-7.216.067-9.25-2.674-.569-.784-.985-1.665-1.227-2.598-.473-1.76-.438-3.607-.4-5.426l.035-1.761c-.004-.22.02-.438.07-.651.11-.307.275-.591.49-.837l1.63-2.119c.17-.312.518-.485.873-.432H5.1c.339-.057.678.104.844.4l1.781 2.329c.159.186.287.396.378.623.077.288.1.588.067.885-.094 2.338.293 4.736-.357 6.986-.534 1.791-1.681 3.344-3.246 4.394zm7.65-9.628c-.002 1.102-.907 1.994-2.025 1.996v-3.992c1.118.001 2.023.894 2.024 1.996zm-20.24-7.984C-8.02 4.231-5.757 2-2.963 1.995h6.071C5.903 2 8.166 4.232 8.17 6.986v1.996L6.955 7.385c-.191-.252-.491-.4-.81-.4H-5.999c-.318 0-.618.148-.81.4L-8.022 8.98V6.985zm-2.025 9.98c-1.117 0-2.024-.894-2.024-1.996 0-1.102.907-1.996 2.024-1.996v3.992zm-3.036-4.632c-.176.198-.333.412-.467.64h-2.569v-1.996h3.036v1.356zm-4.048 4.195l2.9 3.43h-5.799l2.9-3.43zm-14.554 9.418h8.482v1.996h-9.494l1.012-1.996zm-1.638 3.992h10.12v9.979h-10.12v-9.98zm12.144 9.979V37.92h1.56l-.709 1.996h-.85zm4.097 16.25c-1.145 2.71-6.12 2.18-6.12-.983 0-.612.212-1.206.599-1.684l11.019-13.583h4.573v5.987h-5.06c-.389-.004-.745.215-.911.562l-4.1 9.701zm6.041 1.65V47.9h3.018v9.98l-3.018-.063zm19.21.062V47.9h3.036v9.98H8.17zm12.448.014c-1.348.173-2.804-.343-3.366-1.673l-4.1-9.702c-.156-.371-.525-.614-.934-.614h-5.06v-5.987h4.574l11.02 13.582c.765.945.788 2.28.054 3.249-.522.688-1.342 1.036-2.188 1.145z" mask="url(#prefix__b)"/>
        </g>
        <g transform="translate(-1) matrix(-1 0 0 1 26.5 0)">
            <mask id="prefix__d" fill="#fff">
                <use xlink:href="#prefix__c"/>
            </mask>
            <path fill="#621132" fill-rule="nonzero" d="M25.074 52.878l-5.827-16.28c-.746-2.184-2.617-3.81-4.909-4.265l-1.109-.22v-.18c-.004-3.447-2.555-6.378-6.01-6.905 1.658-1.627 2.691-3.772 2.924-6.068h.05c2.236 0 4.048-1.787 4.048-3.991 0-2.205-1.812-3.992-4.048-3.992V6.985C10.19 3.13 7.02.005 3.11 0h-6.072c-3.91.004-7.08 3.13-7.084 6.985v3.992c-.34 0-.681.042-1.012.126V9.98c0-.55-.453-.998-1.012-.998h-5.06c-.558 0-1.012.447-1.012.998v4.628l-4.826 5.71c-.151.18-.234.406-.234.64v2.993h-9.108c-.383 0-.733.214-.905.552l-2.024 3.991-.002.007c-.069.136-.105.287-.105.44v11.975c0 .55.454.998 1.012.998h13.299l-3.895 10.973c-.646 1.82-.377 4.051.98 5.49 2.413 2.56 7.33 1.89 8.715-1.388l2.153-5.096v6.985c0 .551.454.998 1.012.998h24.288c.56 0 1.012-.447 1.012-.998v-6.985l2.154 5.096c1.05 2.486 4.056 3.41 6.549 2.68 2.834-.83 4.084-4.156 3.142-6.79zm-3.656-4.216l-2.547-3.14 1.175-.694 1.372 3.834zM17.329 37.24l.006.016 2.023 5.652-1.763 1.043-4.366-5.381v-4.42l.712.14c1.583.314 2.876 1.44 3.388 2.95zM6.145 57.879H-5.999V47.9c.56 0 1.012-.447 1.012-.998V38.92c0-.551-.453-.998-1.012-.998v-5.37l.043-.022c.167 1.395.81 2.693 1.825 3.679 1.118 1.096 2.63 1.712 4.207 1.713l.115-.001c3.065-.074 5.6-2.378 5.923-5.385l.031.015v5.371c-.558 0-1.012.447-1.012.998v7.983c0 .551.454.998 1.012.998v9.98zM-10.047 18.96h.051c.18 1.81.862 3.537 1.971 4.99h-3.034v-2.994c0-.233-.082-.459-.234-.638l-4.52-5.35h1.718c.003 2.204 1.814 3.99 4.048 3.992zm10.12 8.982c1.393-.001 2.771-.285 4.048-.832v4.823c-.01 2.17-1.769 3.939-3.969 3.991-1.072.019-2.107-.393-2.865-1.14-.803-.778-1.257-1.84-1.262-2.95V27.11c.92.397 1.894.656 2.89.768.385.043.772.065 1.158.065zm-16.192 3.991h3.036v.18l-1.162.23c-.656.13-1.288.36-1.874.682v-1.092zm5.06-5.987h1.438c-.526.31-1.01.687-1.438 1.12v-1.12zm3.717 5.035l-3.691.728c.116-2.66 2.334-4.76 5.034-4.765v3.375l-1.343.662zm-5.74-1.043h-8.097v-7.984h8.096v7.984zm-8.097 1.995h3.036v2.81c-.285.367-.53.763-.729 1.182h-2.307v-3.992zm1.256 12.885l1.197.707-2.574 3.174 1.377-3.88zm2.473-.866l-1.79-1.057.585-1.65 1.44-4.059c.53-1.479 1.808-2.575 3.367-2.886l.765-.151v4.42l-4.367 5.383zm6.41-10.206l3.017-.595v4.77h-3.018v-4.175zm19.21-.595l3.035.599v4.171H8.17v-4.77zm3.03-1.438l-3.711-.732-1.344-.662v-3.375c2.707.003 4.932 2.103 5.055 4.769zm-6.632-7.116c-.54.364-1.123.66-1.737.881-3.184 1.14-7.216.067-9.25-2.674-.569-.784-.985-1.665-1.227-2.598-.473-1.76-.438-3.607-.4-5.426l.035-1.761c-.004-.22.02-.438.07-.651.11-.307.275-.591.49-.837l1.63-2.119c.17-.312.518-.485.873-.432H5.1c.339-.057.678.104.844.4l1.781 2.329c.159.186.287.396.378.623.077.288.1.588.067.885-.094 2.338.293 4.736-.357 6.986-.534 1.791-1.681 3.344-3.246 4.394zm7.65-9.628c-.002 1.102-.907 1.994-2.025 1.996v-3.992c1.118.001 2.023.894 2.024 1.996zm-20.24-7.984C-8.02 4.231-5.757 2-2.963 1.995h6.071C5.903 2 8.166 4.232 8.17 6.986v1.996L6.955 7.385c-.191-.252-.491-.4-.81-.4H-5.999c-.318 0-.618.148-.81.4L-8.022 8.98V6.985zm-2.025 9.98c-1.117 0-2.024-.894-2.024-1.996 0-1.102.907-1.996 2.024-1.996v3.992zm-3.036-4.632c-.176.198-.333.412-.467.64h-2.569v-1.996h3.036v1.356zm-4.048 4.195l2.9 3.43h-5.799l2.9-3.43zm-14.554 9.418h8.482v1.996h-9.494l1.012-1.996zm-1.638 3.992h10.12v9.979h-10.12v-9.98zm12.144 9.979V37.92h1.56l-.709 1.996h-.85zm4.097 16.25c-1.145 2.71-6.12 2.18-6.12-.983 0-.612.212-1.206.599-1.684l11.019-13.583h4.573v5.987h-5.06c-.389-.004-.745.215-.911.562l-4.1 9.701zm6.041 1.65V47.9h3.018v9.98l-3.018-.063zm19.21.062V47.9h3.036v9.98H8.17zm12.448.014c-1.348.173-2.804-.343-3.366-1.673l-4.1-9.702c-.156-.371-.525-.614-.934-.614h-5.06v-5.987h4.574l11.02 13.582c.765.945.788 2.28.054 3.249-.522.688-1.342 1.036-2.188 1.145z" mask="url(#prefix__d)"/>
        </g>
    </g>
</svg>
