<svg xmlns="http://www.w3.org/2000/svg" width="60" height="60" viewBox="0 0 60 60">
    <path fill="#621132" d="M22.158 59.751h-.996v-7.51c-.784-1.025-1.33-2.212-1.602-3.474l-4.545 8.47c-.578 1.584-2.082 2.639-3.766 2.638-.063 0-.126-.002-.19-.005-.073.003-.146.006-.22.006-1.21 0-2.367-.507-3.19-1.397-.822-.89-1.237-2.084-1.144-3.294l.715-9.32v-2.954h-.581c-1.082-.002-2.15-.254-3.118-.738l-1.62-.812C.885 40.857.244 39.818.248 38.683v-2.816c0-.761.393-1.468 1.039-1.868.646-.4 1.452-.436 2.132-.096l.992.497c.692.346 1.454.526 2.227.527h1.957l-.191-.382c-.482-.965-.398-2.118.22-3.002.619-.884 1.67-1.357 2.74-1.233 1.071.124 1.987.827 2.387 1.83l1.359 3.405c.223-.407.487-.79.789-1.143l-.26-2.327c-.313-2.809.108-5.651 1.22-8.248.766-1.783 1.158-3.704 1.155-5.644 0-.24-.01-.483-.02-.74L17.828 14c-.18-3.648 1.14-7.21 3.652-9.856C23.99 1.5 27.476.001 31.12 0c7.348.006 13.304 5.97 13.314 13.333 0 .223-.01.448-.02.666l-.17 3.454c-.109 2.184.28 4.364 1.136 6.374.873 2.031 1.323 4.22 1.325 6.43-.003.606-.039 1.21-.105 1.811l-.26 2.36c.486.568.872 1.215 1.143 1.912l.686 1.736c.509-.32 1.076-.535 1.668-.633l9.003-1.504c.29-.048.584.034.808.223.223.19.352.468.352.761v16.965c0 .476-.335.885-.801.978l-.2.04c-.044.937-.736 1.715-1.66 1.867l-2.648.442c-.495 1.367-1.686 2.362-3.117 2.606-.217.037-.436.055-.656.055-1.686-.002-3.194-1.053-3.78-2.637l-.192-.358h-1.884c-.033 0-.148-.011-.173-.016l-3.81-.762v3.648H22.157zm.996-1.992h15.933v-2.055l-4.179-.838c-.465-.093-.8-.503-.8-.978V40.504l-2.113 3.882c-.175.321-.51.52-.875.52-.364 0-.7-.199-.874-.52L24.554 33.93h-3.332c-1.344.006-2.63.549-3.572 1.508-.455.46-.811 1.008-1.048 1.61l-1.415 3.532v12.124l4.662-8.688c.3-.871.738-1.69 1.294-2.425l.013-.022.018-.03h.002c.03-.044.065-.085.103-.124.369-.463.783-.887 1.237-1.266l1.275 1.533c-2.873 2.405-3.262 6.687-.868 9.572.149.18.23.405.23.639v5.867zm3.485-42.79c.825 0 1.493.67 1.494 1.497 0 .826-.669 1.497-1.494 1.497s-1.494-.67-1.494-1.497c0-.827.669-1.497 1.494-1.497zm8.963 0c.824 0 1.493.67 1.493 1.497 0 .826-.668 1.497-1.493 1.497-.825 0-1.494-.67-1.494-1.497 0-.827.669-1.497 1.494-1.497zm-4.482 5.987c.55 0 .996-.447.996-.998h1.992c0 1.654-1.338 2.994-2.988 2.994s-2.987-1.34-2.987-2.994h1.991c.001.551.447.998.996.998zm-4.41 12.767l1.199 2.202h6.423l1.198-2.203c-.863-.383-1.42-1.24-1.422-2.188V28.48c-1.945.613-4.03.613-5.975 0v3.054c-.001.947-.559 1.805-1.423 2.189zm4.41-6.78c4.398-.004 7.962-3.575 7.967-7.983v-4.138c-4.254-.755-8.25-2.568-11.623-5.274-1.043 1.956-2.517 3.647-4.31 4.945v4.467c.004 4.408 3.568 7.979 7.966 7.984zm13.477 8.53l-.018-.019c-.932-.975-2.222-1.526-3.57-1.525h-3.322l-1.205 2.213 7.789 1.3c.64.107 1.249.35 1.787.712l-.428-1.083c-.23-.599-.582-1.143-1.033-1.598zm.564 5.442h.695c-.339-.797-1.06-1.365-1.914-1.504L36.1 38.1v.998l4.53.908 4.532.908zM58.008 38.1l-7.843 1.31c-.853.14-1.574.707-1.913 1.504h.695l4.377-.877 4.684-.94v-.997zM2.791 39.576l1.621.812c.692.346 1.454.526 2.227.527h6.556v-4.798l-1.293-3.237c-.176-.437-.645-.678-1.102-.565-.277.07-.507.26-.627.52s-.114.56.014.817l.911 1.827c.154.31.138.677-.043.97-.182.295-.502.474-.848.474H6.64c-1.082-.001-2.15-.254-3.118-.737l-.992-.498c-.061-.032-.136-.03-.194.01-.06.034-.096.1-.094.169v2.816c-.002.379.212.725.55.893zm10.404 3.335H9.212v1.995h3.983v-1.995zm-4.057 3.991l-.648 8.436c-.05.655.175 1.302.62 1.785.447.482 1.073.756 1.73.756.019 0 .038-.003.058-.003.037-.004.074-.005.112-.005 1.23-.09 2.183-1.116 2.185-2.352v-8.617H9.138zm12.04-5.362l.003.001.06-.078c-.022.024-.043.05-.063.077zm-3.444-8.664c1.06-.614 2.263-.939 3.488-.943h4.52c.22-.002.396-.18.4-.399v-3.937c-3.08-1.782-4.978-5.073-4.98-8.637v-4.99c0-.333.166-.644.443-.83 1.813-1.212 3.28-2.877 4.255-4.83l.386-.773c.136-.273.39-.468.687-.53.298-.063.608.015.842.21l.565.472c3.394 2.836 7.509 4.669 11.884 5.294.49.07.855.491.855.988v4.99c-.003 3.563-1.9 6.854-4.98 8.636v3.937c.003.22.18.397.399.4h4.511c1.23 0 2.436.328 3.498.948l.113-1.028c.06-.53.09-1.064.094-1.597-.002-1.942-.398-3.863-1.165-5.646-.975-2.29-1.417-4.772-1.294-7.259l.17-3.45c.01-.202.018-.394.018-.57-.002-4.119-2.233-7.913-5.827-9.912-3.594-2-7.987-1.889-11.477.289-3.49 2.177-5.527 6.078-5.323 10.192l.17 3.454c.01.275.02.548.02.827.004 2.211-.443 4.4-1.315 6.431-.977 2.279-1.346 4.773-1.07 7.238l.113 1.025zm13.386 8.948l2.125-3.903h-4.25l2.125 3.903zm4.98-.69V53.07l7.966 1.596V42.731L36.1 41.134zm9.958 1.777v11.975h1.992V42.91h-1.992zm5.175 14.943c.399-.068.77-.252 1.066-.528-.426-.167-.78-.476-1.003-.875l-2.047.41-.007.001h-.001l-.022.003-.056.009c.366.622 1.034 1.005 1.755 1.005.105.001.21-.007.315-.025zm5.78-3.05v-3.609c0-.165-.134-.3-.3-.301-.016 0-.033.002-.05.004l-3.383.565c-.145.024-.251.15-.251.297v3.71l3.983-.666zm-4.06-5.31l3.382-.564c.585-.098 1.185.035 1.673.372v-8.168l-7.967 1.597v11.936l.996-.2V51.76c-.003-1.124.809-2.084 1.916-2.265z"/>
</svg>
