<svg xmlns="http://www.w3.org/2000/svg" width="51" height="33" viewBox="0 0 51 33">
    <g fill="#D4C19C" opacity=".502">
        <path d="M20.4 24.274H17c-.47 0-.85.386-.85.864v6.91c0 .478.38.864.85.864h3.4c.47 0 .85-.386.85-.864v-6.91c0-.478-.38-.864-.85-.864zm-.85 6.91h-1.7v-5.182h1.7v5.183zM34 24.274h-3.4c-.47 0-.85.386-.85.864v6.91c0 .478.38.864.85.864H34c.47 0 .85-.386.85-.864v-6.91c0-.478-.38-.864-.85-.864zm-.85 6.91h-1.7v-5.182h1.7v5.183z"/>
        <path d="M20.4 27.729H30.599999999999998V29.457H20.4zM20.4 24.274H30.599999999999998V26.002000000000002H20.4z"/>
        <path d="M34.437 5.394l-8.5-5.183c-.27-.165-.605-.164-.875 0l-8.5 5.183c-.256.155-.412.437-.412.74v19.004c0 .478.38.864.85.864h17c.47 0 .85-.386.85-.864V6.134c0-.303-.157-.585-.413-.74zm-1.287 18.88h-15.3V6.624L25.5 1.96l7.65 4.664v17.65z"/>
        <path d="M25.5 11.317c-3.281 0-5.95 2.712-5.95 6.047v7.774c0 .478.38.864.85.864h10.2c.47 0 .85-.386.85-.864v-7.774c0-3.335-2.67-6.047-5.95-6.047zm4.25 12.957h-8.5v-6.91c0-2.382 1.907-4.32 4.25-4.32 2.344 0 4.25 1.938 4.25 4.32v6.91zM20.4 31.185H30.599999999999998V32.913H20.4z"/>
        <path d="M27.2 18.228h-3.4c-.47 0-.85.386-.85.863v6.047c0 .478.38.864.85.864h3.4c.47 0 .85-.386.85-.864V19.09c0-.477-.38-.863-.85-.863zm-.85 6.046h-1.7v-4.319h1.7v4.32zM25.5 4.407c-1.406 0-2.55 1.162-2.55 2.591 0 1.429 1.144 2.592 2.55 2.592s2.55-1.163 2.55-2.592-1.144-2.591-2.55-2.591zm0 3.455c-.468 0-.85-.388-.85-.864s.382-.864.85-.864c.47 0 .85.388.85.864s-.38.864-.85.864zM17 8.726H1.7c-.47 0-.85.387-.85.863v22.46c0 .477.38.863.85.863H17c.47 0 .85-.386.85-.864V9.59c0-.477-.38-.864-.85-.864zm-.85 22.459H2.55V10.453h13.6v20.732z"/>
        <path d="M20.4 18.228H30.599999999999998V19.956000000000003H20.4zM20.4 14.772H30.599999999999998V16.5H20.4zM12.75 26.866H14.45V29.457H12.75zM8.5 26.866H10.2V29.457H8.5zM4.25 26.866H5.95V29.457H4.25zM12.75 21.683H14.45V24.274H12.75zM8.5 21.683H10.2V24.274H8.5zM4.25 21.683H5.95V24.274H4.25zM12.75 16.5H14.45V19.091H12.75zM8.5 16.5H10.2V19.091H8.5zM4.25 16.5H5.95V19.091H4.25zM0 12.181H17V13.908999999999999H0zM49.3 8.726H34c-.47 0-.85.387-.85.863v22.46c0 .477.38.863.85.863h15.3c.47 0 .85-.386.85-.864V9.59c0-.477-.38-.864-.85-.864zm-.85 22.459h-13.6V10.453h13.6v20.732z"/>
        <path d="M36.55 26.866H38.25V29.457H36.55zM40.8 26.866H42.5V29.457H40.8zM45.05 26.866H46.75V29.457H45.05zM36.55 21.683H38.25V24.274H36.55zM40.8 21.683H42.5V24.274H40.8zM45.05 21.683H46.75V24.274H45.05zM36.55 16.5H38.25V19.091H36.55zM40.8 16.5H42.5V19.091H40.8zM45.05 16.5H46.75V19.091H45.05zM34 12.181H51V13.908999999999999H34zM0 8.726H17V10.454H0zM34 8.726H51V10.454H34zM0 31.185H51V32.913H0z"/>
    </g>
</svg>
